<!-- <svg version="1.1" id="_x32_" xmlns="http://www.w3.org/2000/svg" xmlns:xlink="http://www.w3.org/1999/xlink" width="800px" height="800px" viewBox="0 0 512 512" xml:space="preserve" fill="#000000">

<g id="SVGRepo_bgCarrier" stroke-width="0"/>

<g id="SVGRepo_tracerCarrier" stroke-linecap="round" stroke-linejoin="round"/>

<g id="SVGRepo_iconCarrier"> <style type="text/css">  .st0{fill:#1DC071;}  </style> <g> <path class="st0"   stroke="#1DC071" d="M256,98.359c11.172,0,20.219-9.063,20.219-20.234c0-11.156-9.047-20.219-20.219-20.219 s-20.219,9.063-20.219,20.219C235.781,89.297,244.828,98.359,256,98.359z"/> <rect x="307.859" y="413.25" class="st0" width="60.5" height="12.969"/> <path class="st0" d="M429.391,374.281c-4.391-16.063-12.422-30.906-23.094-44.031l0,0c-7.344-9-15.938-17.203-25.563-24.516 c4.641-5.266,8.938-10.859,12.891-16.703c17.594-26,27.984-57.359,28.344-91h0.953l-1.688-17.594v-0.141v-0.016 c-2.375-24.875-10.266-48.203-22.391-68.656l-4.719-7.922h-0.328c-14.031-20.859-32.625-38.344-54.406-51.016 c-3.906-2.281-7.906-4.391-12.016-6.344c-6-13.438-15.625-24.844-27.672-33C287.266,4.938,272.188,0,256.078,0h-0.063 c-0.031,0-0.063,0-0.125,0c-10.703,0.016-20.984,2.203-30.313,6.156c-14.031,5.938-25.938,15.828-34.359,28.281l0,0 c-2.531,3.75-4.734,7.734-6.594,11.906c-4.094,1.953-8.109,4.063-12.016,6.344c-21.766,12.672-40.375,30.156-54.406,51.016h-0.328 l-4.703,7.922l0,0c-12.141,20.453-20.031,43.781-22.391,68.672l-1.703,17.734h0.953c0.234,22.219,4.859,43.469,13.031,62.813 c6.984,16.516,16.547,31.641,28.203,44.891c-13.625,10.359-25.203,22.5-34.031,36.172c-5.844,9.031-10.469,18.75-13.641,28.953 c-3.156,10.219-4.844,20.953-4.844,31.938c0,7.906,1.547,15.672,4.297,23.016c2.422,6.438,5.75,12.563,9.813,18.375 c7.094,10.125,16.406,19.281,27.406,27.438c16.484,12.203,36.844,22.219,59.859,29.266l0,0C203.141,507.938,228.844,512,256,512 c23.641,0,46.203-3.094,66.813-8.531h0.016c15.469-4.094,29.859-9.5,42.859-15.984v-0.016c9.734-4.859,18.688-10.328,26.719-16.344 c12.031-9.031,22.031-19.281,29.25-30.719l0,0c3.594-5.719,6.484-11.75,8.484-18.063c2-6.297,3.109-12.875,3.109-19.547 C433.25,393.016,431.922,383.469,429.391,374.281z M208.219,57.953c3.922-9.297,10.516-17.234,18.797-22.813 c8.297-5.609,18.219-8.844,28.984-8.859c7.188,0,13.984,1.453,20.188,4.063c9.281,3.938,17.219,10.531,22.813,18.813 s8.844,18.203,8.844,28.969c0,7.188-1.453,14-4.063,20.188c-3.938,9.281-10.516,17.219-18.797,22.813 c-8.297,5.594-18.203,8.844-28.984,8.844c-7.188,0-13.984-1.438-20.172-4.063c-9.297-3.922-17.234-10.516-22.828-18.781 c-5.594-8.297-8.844-18.219-8.844-29C204.156,70.938,205.594,64.156,208.219,57.953z M132.969,129.969h73.063 c3,2.906,6.234,5.531,9.703,7.875c11.484,7.75,25.391,12.313,40.266,12.297c9.922,0.016,19.406-2.016,28.031-5.656 c8.203-3.484,15.625-8.422,21.938-14.516h73.063c6.938,12.859,11.906,26.906,14.531,41.781H118.438 C121.063,156.875,126.031,142.828,132.969,129.969z M116.297,196.234c0-1.453,0.031-2.891,0.078-4.328h279.25 c0.047,1.438,0.078,2.875,0.078,4.328c0,19.313-3.906,37.672-10.969,54.375c-7.234,17.078-17.781,32.453-30.828,45.266 c-5.219,5.156-10.859,9.875-16.828,14.141c-0.984,0.703-1.969,1.391-2.969,2.063c-22.313,15.078-49.141,23.844-78.109,23.859 c-19.313,0-37.672-3.906-54.375-10.984c-9.469-4.016-18.422-9.031-26.703-14.938c-5.969-4.266-11.594-8.984-16.828-14.141 c-6.672-6.547-12.688-13.766-17.938-21.531C125.078,252.031,116.297,225.219,116.297,196.234z M304.078,348.734l-34.125,41.422 l1.172-2.641v-32.125C282.484,354.328,293.516,352.063,304.078,348.734L304.078,348.734z M242.047,390.156l-34.109-41.422 c10.547,3.328,21.578,5.594,32.938,6.656v16.547v15.578L242.047,390.156z M404.328,416.594c-1.547,4.125-3.781,8.313-6.719,12.516 c-5.125,7.328-12.406,14.641-21.531,21.391c-13.641,10.125-31.422,19-51.891,25.25c-20.484,6.281-43.656,9.969-68.188,9.969 c-21.359,0-41.688-2.797-60.109-7.656c-13.813-3.656-26.547-8.469-37.828-14.094c-8.453-4.219-16.078-8.906-22.703-13.875 c-9.969-7.469-17.688-15.594-22.766-23.688c-2.547-4.031-4.438-8.063-5.688-12c-1.25-3.969-1.859-7.813-1.859-11.609 c0-7.391,1-14.578,2.891-21.563c3.359-12.203,9.516-23.781,18.156-34.375c7.906-9.719,17.891-18.578,29.563-26.172 c3.531,2.844,7.188,5.563,10.969,8.094c5.078,3.438,10.359,6.594,15.844,9.438l0,0l53.406,64.844L256,427.5l20.125-24.438 l53.406-64.859c9.547-4.953,18.531-10.828,26.813-17.516c15.313,9.969,27.703,22.094,36.344,35.484 c4.625,7.156,8.188,14.672,10.594,22.453c2.422,7.797,3.688,15.859,3.688,24.172C406.969,407.281,406.094,411.875,404.328,416.594z "/> </g> </g>

</svg> -->

<svg width="20" height="20" viewBox="0 0 20 20" fill="none" xmlns="http://www.w3.org/2000/svg">
<path fill-rule="evenodd" clip-rule="evenodd" d="M1 4.5C1 1.87479 1.02811 1 4.5 1C7.97189 1 8 1.87479 8 4.5C8 7.12521 8.01107 8 4.5 8C0.988927 8 1 7.12521 1 4.5Z" stroke="#1DC071" stroke-width="2" stroke-linecap="round" stroke-linejoin="round"/>
<path fill-rule="evenodd" clip-rule="evenodd" d="M12 4.5C12 1.87479 12.0281 1 15.5 1C18.9719 1 19 1.87479 19 4.5C19 7.12521 19.0111 8 15.5 8C11.9889 8 12 7.12521 12 4.5Z" stroke="#1DC071" stroke-width="2" stroke-linecap="round" stroke-linejoin="round"/>
<path fill-rule="evenodd" clip-rule="evenodd" d="M1 15.5C1 12.8748 1.02811 12 4.5 12C7.97189 12 8 12.8748 8 15.5C8 18.1252 8.01107 19 4.5 19C0.988927 19 1 18.1252 1 15.5Z" stroke="#1DC071" stroke-width="2" stroke-linecap="round" stroke-linejoin="round"/>
<path fill-rule="evenodd" clip-rule="evenodd" d="M12 15.5C12 12.8748 12.0281 12 15.5 12C18.9719 12 19 12.8748 19 15.5C19 18.1252 19.0111 19 15.5 19C11.9889 19 12 18.1252 12 15.5Z" stroke="#1DC071" stroke-width="2" stroke-linecap="round" stroke-linejoin="round"/>
</svg>
